<svg width="24" height="24" viewBox="0 0 24 24" fill="none" xmlns="http://www.w3.org/2000/svg">
<path fill-rule="evenodd" clip-rule="evenodd" d="M5.26666 4.2C5.26666 3.53726 5.80392 3 6.46666 3H17.9333C18.5961 3 19.1333 3.53726 19.1333 4.2V7.01025H20.2C20.8627 7.01025 21.4 7.54751 21.4 8.21025V16.3641C21.4 17.0268 20.8627 17.5641 20.2 17.5641H18.7846V20.2871C18.7846 20.9499 18.2474 21.4871 17.5846 21.4871H6.81542C6.15268 21.4871 5.61542 20.9499 5.61542 20.2871V17.5641H4.2C3.53726 17.5641 3 17.0268 3 16.3641V8.21025C3 7.54751 3.53726 7.01025 4.2 7.01025H5.26666V4.2ZM17.7333 4.4V7.01025H6.66666V4.4H17.7333ZM4.4 16.1641V8.41025H20V16.1641H18.7846V13.441C18.7846 12.7782 18.2474 12.241 17.5846 12.241H6.81542C6.15268 12.241 5.61542 12.7782 5.61542 13.441V16.1641H4.4ZM7.01542 20.0871V13.641H17.3846V20.0871H7.01542ZM8.93071 14.8564C8.54411 14.8564 8.23071 15.1698 8.23071 15.5564C8.23071 15.943 8.54411 16.2564 8.93071 16.2564H15.4692C15.8558 16.2564 16.1692 15.943 16.1692 15.5564C16.1692 15.1698 15.8558 14.8564 15.4692 14.8564H8.93071ZM8.23071 18.1718C8.23071 17.7852 8.54411 17.4718 8.93071 17.4718H15.4692C15.8558 17.4718 16.1692 17.7852 16.1692 18.1718C16.1692 18.5584 15.8558 18.8718 15.4692 18.8718H8.93071C8.54411 18.8718 8.23071 18.5584 8.23071 18.1718ZM5.66148 10.3258C6.02258 10.3258 6.31532 10.033 6.31532 9.67191C6.31532 9.3108 6.02258 9.01807 5.66148 9.01807C5.30037 9.01807 5.00763 9.3108 5.00763 9.67191C5.00763 10.033 5.30037 10.3258 5.66148 10.3258Z" fill="#262626"/>
</svg>
